<svg height="512" viewBox="0 0 512 512" width="512" xmlns="http://www.w3.org/2000/svg"><path d="m416 32h-44.723a15.627 15.627 0 0 0 -14.583 21.073c.042.115.083.231.123.347a15.692 15.692 0 0 0 14.756 10.58h36.427a16 16 0 0 1 16 16v384a16 16 0 0 1 -16 16h-304a16 16 0 0 1 -16-16v-384a16 16 0 0 1 16-16h36.427a15.692 15.692 0 0 0 14.756-10.58c.04-.116.081-.232.123-.347a15.627 15.627 0 0 0 -14.583-21.073h-44.723a40 40 0 0 0 -40 40v400a40 40 0 0 0 40 40h320a40 40 0 0 0 40-40v-400a40 40 0 0 0 -40-40z"/><path d="m248 320h-128v-8a64.422 64.422 0 0 1 36.905-57.98 32.179 32.179 0 0 1 -20.905-30.02v-8a8 8 0 0 1 8-8h80a8 8 0 0 1 8 8v8a32.175 32.175 0 0 1 -20.9 30.02 64.422 64.422 0 0 1 36.9 57.98z"/><path d="m319.29 128c-39.637.384-71.29 33.276-71.29 72.915v55.085a8 8 0 0 0 8 8h24.873a55.594 55.594 0 0 1 14.815-10.449c.156-.075.312-.22.312-.377a.652.652 0 0 0 -.286-.4 39.718 39.718 0 0 1 -15.714-31.774v-37a8 8 0 0 1 8-8h64a8 8 0 0 1 8 8v37a39.717 39.717 0 0 1 -15.713 31.773.655.655 0 0 0 -.287.4c0 .157.156.3.311.377a55.594 55.594 0 0 1 14.816 10.45h24.873a8 8 0 0 0 8-8v-56a72.081 72.081 0 0 0 -72.71-72z"/><path d="m216 192h-72a24 24 0 0 1 -24-24v-48h20.426l1.907 3.089c.8.8 5.529 4.911 17.667 4.911h40a32 32 0 0 1 32 32v16a16 16 0 0 1 -16 16z"/><path d="m232 368h-64a8 8 0 0 1 0-16h64a8 8 0 0 1 0 16zm-96 0a8 8 0 1 1 8-8 8.011 8.011 0 0 1 -8 8z"/><path d="m232 400h-64a8 8 0 0 1 0-16h64a8 8 0 0 1 0 16zm-96 0a8 8 0 1 1 8-8 8.011 8.011 0 0 1 -8 8z"/><path d="m232 432h-64a8 8 0 0 1 0-16h64a8 8 0 0 1 0 16zm-96 0a8 8 0 1 1 8-8 8.011 8.011 0 0 1 -8 8z"/><path d="m376 368h-64a8 8 0 0 1 0-16h64a8 8 0 0 1 0 16zm-96 0a8 8 0 1 1 8-8 8.011 8.011 0 0 1 -8 8z"/><path d="m376 400h-64a8 8 0 0 1 0-16h64a8 8 0 0 1 0 16zm-96 0a8 8 0 1 1 8-8 8.011 8.011 0 0 1 -8 8z"/><path d="m376 432h-64a8 8 0 0 1 0-16h64a8 8 0 0 1 0 16zm-96 0a8 8 0 1 1 8-8 8.011 8.011 0 0 1 -8 8z"/><path d="m274.8 280a8.032 8.032 0 0 0 -7.556 5.356 55.454 55.454 0 0 0 -3.244 18.644v16h112v-16a55.454 55.454 0 0 0 -3.244-18.644 8.032 8.032 0 0 0 -7.556-5.356z"/><path d="m304 32v-8a24 24 0 0 0 -24-24h-48a24.014 24.014 0 0 0 -20.782 12.005 8 8 0 0 0 6.939 12h29.843a8 8 0 0 1 8 8 8 8 0 0 1 -8 8h-47.43c-17.638-.005-32.423 14.023-32.57 31.66q-.006.834.021 1.674c.713 21.684 19.014 38.661 40.709 38.661h94.519c21.843 0 40.223-17.2 40.74-39.035a40.045 40.045 0 0 0 -39.989-40.965z"/></svg>